<svg width="356" height="277" viewBox="0 0 356 277" fill="none" xmlns="http://www.w3.org/2000/svg">
<rect x="2.5453" y="5.5453" width="342.909" height="268.909" rx="9.81759" fill="#6BA865" stroke="#F1F571" stroke-width="5.0906"/>
<rect x="6.5453" y="2.5453" width="342.909" height="268.909" rx="9.81759" fill="#6BA865" stroke="#61E855" stroke-width="5.0906"/>
<path d="M172.233 239C172.086 239 171.977 238.969 171.908 238.907C171.845 238.837 171.814 238.729 171.814 238.581V237.196C171.814 237.049 171.845 236.944 171.908 236.882C171.977 236.812 172.086 236.778 172.233 236.778H173.385V232.868H172.233C172.086 232.868 171.977 232.837 171.908 232.775C171.845 232.705 171.814 232.597 171.814 232.449V231.041C171.814 230.894 171.845 230.789 171.908 230.727C171.977 230.657 172.086 230.622 172.233 230.622H177.19C177.338 230.622 177.442 230.657 177.504 230.727C177.574 230.789 177.609 230.894 177.609 231.041V232.449C177.609 232.597 177.574 232.705 177.504 232.775C177.442 232.837 177.338 232.868 177.19 232.868H176.061V236.778H177.19C177.338 236.778 177.442 236.812 177.504 236.882C177.574 236.944 177.609 237.049 177.609 237.196V238.581C177.609 238.729 177.574 238.837 177.504 238.907C177.442 238.969 177.338 239 177.19 239H172.233Z" fill="#F1F571"/>
<path d="M331.716 20.8155C331.716 20.6147 331.879 20.4519 332.079 20.4519H336.352C336.553 20.4519 336.716 20.6147 336.716 20.8155V39.679C336.716 39.9867 336.357 40.1553 336.12 39.9591L331.848 36.423C331.764 36.354 331.716 36.2513 331.716 36.1429V20.8155Z" fill="#F1F571"/>
<path d="M331.352 20.4519C331.553 20.4519 331.716 20.2891 331.716 20.0883L331.716 15.8155C331.716 15.6147 331.553 15.4519 331.352 15.4519L312.489 15.4519C312.181 15.4519 312.012 15.8103 312.209 16.0473L315.745 20.3201C315.814 20.4036 315.916 20.4519 316.025 20.4519L331.352 20.4519Z" fill="#F1F571"/>
<path d="M320.671 23.8505C320.441 23.6214 320.604 23.2297 320.928 23.2297H328.575C328.776 23.2297 328.939 23.3925 328.939 23.5934V31.2408C328.939 31.5647 328.547 31.727 328.318 31.4979L324.494 27.6742L320.671 23.8505Z" fill="#F1F571"/>
<path d="M24 20.3636C24 20.1628 23.8372 20 23.6364 20H19.3636C19.1628 20 19 20.1628 19 20.3636V39.2271C19 39.5348 19.3584 39.7034 19.5954 39.5072L23.8682 35.9711C23.9517 35.9021 24 35.7994 24 35.691V20.3636Z" fill="#F1F571"/>
<path d="M24.3636 20C24.1628 20 24 19.8372 24 19.6364L24 15.3636C24 15.1628 24.1628 15 24.3636 15L43.2271 15C43.5348 15 43.7034 15.3584 43.5072 15.5954L39.9711 19.8682C39.9021 19.9517 39.7994 20 39.691 20L24.3636 20Z" fill="#F1F571"/>
<path d="M35.0453 23.3986C35.2744 23.1695 35.1121 22.7778 34.7882 22.7778H27.1407C26.9399 22.7778 26.7771 22.9406 26.7771 23.1414V30.7889C26.7771 31.1128 27.1688 31.2751 27.3979 31.046L31.2216 27.2223L35.0453 23.3986Z" fill="#F1F571"/>
<path d="M329.896 251.802C329.896 252.003 330.059 252.166 330.26 252.166H336.078C336.279 252.166 336.442 252.003 336.442 251.802V226.758C336.442 226.45 336.083 226.282 335.846 226.478L330.028 231.293C329.945 231.362 329.896 231.465 329.896 231.573V251.802Z" fill="#F1F571"/>
<path d="M329.533 252.166C329.734 252.166 329.896 252.328 329.896 252.529L329.896 258.347C329.896 258.548 329.734 258.711 329.533 258.711L304.489 258.711C304.181 258.711 304.013 258.352 304.209 258.115L309.024 252.297C309.093 252.214 309.196 252.166 309.304 252.166L329.533 252.166Z" fill="#F1F571"/>
<path d="M315.246 247.909C315.017 248.138 315.179 248.529 315.503 248.529H325.897C326.098 248.529 326.261 248.367 326.261 248.166V237.771C326.261 237.448 325.869 237.285 325.64 237.514L320.443 242.711L315.246 247.909Z" fill="#F1F571"/>
<g opacity="0.4">
<path d="M337.508 153.486C337.366 153.344 337.136 153.344 336.994 153.486L332.88 157.6C332.738 157.742 332.738 157.972 332.88 158.114L350.589 175.823C350.806 176.04 351.179 175.906 351.208 175.6L351.917 168.081C351.927 167.974 351.889 167.867 351.812 167.79L337.508 153.486Z" fill="#61E855"/>
<path d="M332.622 157.36C332.622 157.561 332.785 157.724 332.986 157.724L338.804 157.724C339.004 157.724 339.167 157.561 339.167 157.36L339.167 119.544C339.167 119.343 339.004 119.18 338.804 119.18L332.986 119.18C332.785 119.18 332.622 119.343 332.622 119.544L332.622 157.36Z" fill="#61E855"/>
<path d="M337.508 123.883C337.366 124.025 337.136 124.025 336.994 123.883L332.88 119.769C332.738 119.627 332.738 119.397 332.88 119.255L350.589 101.546C350.806 101.329 351.179 101.463 351.208 101.769L351.917 109.288C351.927 109.396 351.889 109.502 351.812 109.579L337.508 123.883Z" fill="#61E855"/>
</g>
<g opacity="0.4">
<path d="M19.2556 156.034C19.3976 155.892 19.6278 155.892 19.7698 156.034L23.8836 160.148C24.0256 160.29 24.0256 160.521 23.8836 160.663L6.17505 178.371C5.95747 178.589 5.58483 178.454 5.55593 178.148L4.84665 170.63C4.83647 170.522 4.87493 170.415 4.95154 170.338L19.2556 156.034Z" fill="#61E855"/>
<path d="M24.1396 159.908C24.1396 160.109 23.9769 160.272 23.776 160.272L17.9582 160.272C17.7574 160.272 17.5946 160.109 17.5946 159.908L17.5946 122.092C17.5946 121.892 17.7574 121.729 17.9582 121.729L23.776 121.729C23.9768 121.729 24.1396 121.892 24.1396 122.092L24.1396 159.908Z" fill="#61E855"/>
<path d="M19.2556 126.431C19.3976 126.573 19.6278 126.573 19.7698 126.431L23.8836 122.318C24.0256 122.176 24.0256 121.945 23.8836 121.803L6.17505 104.095C5.95747 103.877 5.58483 104.011 5.55593 104.318L4.84665 111.836C4.83647 111.944 4.87493 112.051 4.95154 112.127L19.2556 126.431Z" fill="#61E855"/>
</g>
<path d="M24 253.636C24 253.837 23.8372 254 23.6364 254H19.3636C19.1628 254 19 253.837 19 253.636V234.773C19 234.465 19.3584 234.297 19.5954 234.493L23.8682 238.029C23.9517 238.098 24 238.201 24 238.309V253.636Z" fill="#F1F571"/>
<path d="M24.3636 254C24.1628 254 24 254.163 24 254.364L24 258.636C24 258.837 24.1628 259 24.3636 259L43.2271 259C43.5348 259 43.7034 258.642 43.5072 258.405L39.9711 254.132C39.9021 254.048 39.7994 254 39.691 254L24.3636 254Z" fill="#F1F571"/>
<path d="M35.0453 250.601C35.2744 250.831 35.1121 251.222 34.7882 251.222H27.1407C26.9399 251.222 26.7771 251.059 26.7771 250.859V243.211C26.7771 242.887 27.1688 242.725 27.3979 242.954L31.2216 246.778L35.0453 250.601Z" fill="#F1F571"/>
</svg>
