<svg width="355" height="287" viewBox="0 0 355 287" fill="none" xmlns="http://www.w3.org/2000/svg">
<rect x="2.5453" y="11.5453" width="342.909" height="268.909" rx="9.81759" fill="#BF3F2E" stroke="#622318" stroke-width="5.0906"/>
<rect x="6.5453" y="8.5453" width="342.909" height="268.909" rx="9.81759" fill="#BF3F2E" stroke="#401F1B" stroke-width="5.0906"/>
<path d="M178.336 275.879L167.729 275.879L178.336 265.273L188.943 275.879L178.336 275.879Z" fill="#401F1B"/>
<path d="M174.699 10.6066L164.093 10.6066L174.699 21.2132L185.306 10.6066L174.699 10.6066Z" fill="#401F1B"/>
<path d="M169.188 235.35C169.041 235.35 168.932 235.319 168.862 235.257C168.8 235.187 168.769 235.079 168.769 234.931V233.547C168.769 233.399 168.8 233.294 168.862 233.232C168.932 233.163 169.041 233.128 169.188 233.128H170.34V229.218H169.188C169.041 229.218 168.932 229.187 168.862 229.125C168.8 229.055 168.769 228.947 168.769 228.799V227.391C168.769 227.244 168.8 227.139 168.862 227.077C168.932 227.007 169.041 226.972 169.188 226.972H174.145C174.292 226.972 174.397 227.007 174.459 227.077C174.529 227.139 174.564 227.244 174.564 227.391V228.799C174.564 228.947 174.529 229.055 174.459 229.125C174.397 229.187 174.292 229.218 174.145 229.218H173.016V233.128H174.145C174.292 233.128 174.397 233.163 174.459 233.232C174.529 233.294 174.564 233.399 174.564 233.547V234.931C174.564 235.079 174.529 235.187 174.459 235.257C174.397 235.319 174.292 235.35 174.145 235.35H169.188ZM176.233 235.35C176.086 235.35 175.977 235.319 175.908 235.257C175.845 235.187 175.814 235.079 175.814 234.931V233.547C175.814 233.399 175.845 233.294 175.908 233.232C175.977 233.163 176.086 233.128 176.233 233.128H177.385V229.218H176.233C176.086 229.218 175.977 229.187 175.908 229.125C175.845 229.055 175.814 228.947 175.814 228.799V227.391C175.814 227.244 175.845 227.139 175.908 227.077C175.977 227.007 176.086 226.972 176.233 226.972H181.19C181.337 226.972 181.442 227.007 181.504 227.077C181.574 227.139 181.609 227.244 181.609 227.391V228.799C181.609 228.947 181.574 229.055 181.504 229.125C181.442 229.187 181.337 229.218 181.19 229.218H180.061V233.128H181.19C181.337 233.128 181.442 233.163 181.504 233.232C181.574 233.294 181.609 233.399 181.609 233.547V234.931C181.609 235.079 181.574 235.187 181.504 235.257C181.442 235.319 181.337 235.35 181.19 235.35H176.233ZM183.278 235.35C183.131 235.35 183.022 235.319 182.953 235.257C182.891 235.187 182.859 235.079 182.859 234.931V233.547C182.859 233.399 182.891 233.294 182.953 233.232C183.022 233.163 183.131 233.128 183.278 233.128H184.43V229.218H183.278C183.131 229.218 183.022 229.187 182.953 229.125C182.891 229.055 182.859 228.947 182.859 228.799V227.391C182.859 227.244 182.891 227.139 182.953 227.077C183.022 227.007 183.131 226.972 183.278 226.972H188.235C188.383 226.972 188.487 227.007 188.549 227.077C188.619 227.139 188.654 227.244 188.654 227.391V228.799C188.654 228.947 188.619 229.055 188.549 229.125C188.487 229.187 188.383 229.218 188.235 229.218H187.106V233.128H188.235C188.383 233.128 188.487 233.163 188.549 233.232C188.619 233.294 188.654 233.399 188.654 233.547V234.931C188.654 235.079 188.619 235.187 188.549 235.257C188.487 235.319 188.383 235.35 188.235 235.35H183.278Z" fill="#622318"/>
<path d="M331.716 25.9991C331.716 25.7983 331.879 25.6355 332.079 25.6355H336.352C336.553 25.6355 336.716 25.7983 336.716 25.9991V44.8626C336.716 45.1703 336.357 45.3389 336.12 45.1427L331.848 41.6066C331.764 41.5376 331.716 41.4349 331.716 41.3265V25.9991Z" fill="#622318"/>
<path d="M331.352 25.6355C331.553 25.6355 331.716 25.4727 331.716 25.2719L331.716 20.9991C331.716 20.7983 331.553 20.6355 331.352 20.6355L312.489 20.6355C312.181 20.6355 312.012 20.9939 312.209 21.2309L315.745 25.5037C315.814 25.5872 315.916 25.6355 316.025 25.6355L331.352 25.6355Z" fill="#622318"/>
<path d="M320.672 29.0341C320.442 28.805 320.605 28.4133 320.929 28.4133H328.576C328.777 28.4133 328.94 28.5761 328.94 28.7769V36.4244C328.94 36.7483 328.548 36.9106 328.319 36.6815L324.495 32.8578L320.672 29.0341Z" fill="#622318"/>
<path d="M24.1787 26.3634C24.1787 26.1626 24.0159 25.9998 23.8151 25.9998H19.5423C19.3415 25.9998 19.1787 26.1626 19.1787 26.3634V45.2268C19.1787 45.5346 19.5371 45.7032 19.7742 45.507L24.0469 41.9709C24.1304 41.9018 24.1787 41.7991 24.1787 41.6908V26.3634Z" fill="#622318"/>
<path d="M24.5423 25.9998C24.3415 25.9998 24.1787 25.837 24.1787 25.6361L24.1787 21.3634C24.1787 21.1626 24.3415 20.9998 24.5423 20.9998L43.4058 20.9998C43.7135 20.9998 43.8821 21.3581 43.6859 21.5952L40.1498 25.868C40.0808 25.9514 39.9781 25.9998 39.8697 25.9998L24.5423 25.9998Z" fill="#622318"/>
<path d="M35.224 29.3983C35.4531 29.1693 35.2908 28.7776 34.9669 28.7776H27.3195C27.1186 28.7776 26.9558 28.9404 26.9558 29.1412V36.7886C26.9558 37.1126 27.3475 37.2748 27.5766 37.0457L31.4003 33.222L35.224 29.3983Z" fill="#622318"/>
<path d="M331.716 259.53C331.716 259.731 331.879 259.893 332.079 259.893H336.352C336.553 259.893 336.716 259.731 336.716 259.53V240.666C336.716 240.359 336.357 240.19 336.12 240.386L331.848 243.922C331.764 243.991 331.716 244.094 331.716 244.202V259.53Z" fill="#622318"/>
<path d="M331.352 259.893C331.553 259.893 331.716 260.056 331.716 260.257L331.716 264.53C331.716 264.731 331.553 264.893 331.352 264.893L312.489 264.893C312.181 264.893 312.012 264.535 312.209 264.298L315.745 260.025C315.814 259.942 315.916 259.893 316.025 259.893L331.352 259.893Z" fill="#622318"/>
<path d="M320.672 256.495C320.442 256.724 320.605 257.115 320.929 257.115H328.576C328.777 257.115 328.94 256.953 328.94 256.752V249.104C328.94 248.78 328.548 248.618 328.319 248.847L324.495 252.671L320.672 256.495Z" fill="#622318"/>
<g opacity="0.4">
<path d="M336.509 132.845C336.367 132.703 336.137 132.703 335.995 132.845L331.881 136.959C331.739 137.101 331.739 137.332 331.881 137.474L349.59 155.182C349.807 155.4 350.18 155.266 350.209 154.959L350.918 147.441C350.928 147.333 350.89 147.226 350.813 147.15L336.509 132.845Z" fill="#401F1B"/>
<path d="M331.623 136.719C331.623 136.92 331.786 137.083 331.987 137.083L337.804 137.083C338.005 137.083 338.168 136.92 338.168 136.719L338.168 98.9035C338.168 98.7027 338.005 98.5399 337.804 98.5399L331.987 98.5399C331.786 98.5399 331.623 98.7027 331.623 98.9035L331.623 136.719Z" fill="#401F1B"/>
<path d="M336.509 103.242C336.367 103.384 336.137 103.384 335.995 103.242L331.881 99.1281C331.739 98.9861 331.739 98.7559 331.881 98.6139L349.59 80.9053C349.807 80.6877 350.18 80.8219 350.209 81.1282L350.918 88.6466C350.928 88.7545 350.89 88.8613 350.813 88.9379L336.509 103.242Z" fill="#401F1B"/>
<path d="M19.2546 131.21C19.3966 131.068 19.6268 131.068 19.7688 131.21L23.8827 135.324C24.0247 135.466 24.0247 135.696 23.8827 135.838L6.17407 153.547C5.95649 153.764 5.58385 153.63 5.55495 153.324L4.84567 145.806C4.8355 145.698 4.87395 145.591 4.95057 145.514L19.2546 131.21Z" fill="#401F1B"/>
<path d="M24.1406 135.084C24.1406 135.285 23.9778 135.448 23.777 135.448L17.9592 135.448C17.7584 135.448 17.5956 135.285 17.5956 135.084L17.5956 97.2682C17.5956 97.0674 17.7584 96.9046 17.9592 96.9046L23.777 96.9046C23.9778 96.9046 24.1406 97.0674 24.1406 97.2682L24.1406 135.084Z" fill="#401F1B"/>
<path d="M19.2546 101.607C19.3966 101.749 19.6268 101.749 19.7688 101.607L23.8827 97.4928C24.0247 97.3508 24.0247 97.1206 23.8827 96.9786L6.17407 79.27C5.95649 79.0524 5.58385 79.1866 5.55495 79.493L4.84567 87.0114C4.8355 87.1192 4.87395 87.226 4.95057 87.3026L19.2546 101.607Z" fill="#401F1B"/>
<path d="M336.509 183.752C336.367 183.61 336.137 183.61 335.995 183.752L331.881 187.866C331.739 188.008 331.739 188.238 331.881 188.38L349.59 206.088C349.807 206.306 350.18 206.172 350.209 205.865L350.918 198.347C350.928 198.239 350.89 198.132 350.813 198.056L336.509 183.752Z" fill="#401F1B"/>
<path d="M331.623 187.626C331.623 187.826 331.786 187.989 331.987 187.989L337.804 187.989C338.005 187.989 338.168 187.826 338.168 187.626L338.168 149.81C338.168 149.609 338.005 149.446 337.804 149.446L331.987 149.446C331.786 149.446 331.623 149.609 331.623 149.81L331.623 187.626Z" fill="#401F1B"/>
<path d="M336.509 154.148C336.367 154.29 336.137 154.29 335.995 154.148L331.881 150.034C331.739 149.892 331.739 149.662 331.881 149.52L349.59 131.812C349.807 131.594 350.18 131.728 350.209 132.034L350.918 139.553C350.928 139.661 350.89 139.768 350.813 139.844L336.509 154.148Z" fill="#401F1B"/>
<path d="M19.2546 182.116C19.3966 181.974 19.6268 181.974 19.7688 182.116L23.8827 186.23C24.0247 186.372 24.0247 186.603 23.8827 186.745L6.17407 204.453C5.95649 204.671 5.58385 204.537 5.55495 204.23L4.84567 196.712C4.8355 196.604 4.87395 196.497 4.95057 196.421L19.2546 182.116Z" fill="#401F1B"/>
<path d="M24.1406 185.99C24.1406 186.191 23.9778 186.354 23.777 186.354L17.9592 186.354C17.7584 186.354 17.5956 186.191 17.5956 185.99L17.5956 148.174C17.5956 147.973 17.7584 147.81 17.9592 147.81L23.777 147.81C23.9778 147.81 24.1406 147.973 24.1406 148.174L24.1406 185.99Z" fill="#401F1B"/>
<path d="M19.2546 152.513C19.3966 152.655 19.6268 152.655 19.7688 152.513L23.8827 148.399C24.0247 148.257 24.0247 148.027 23.8827 147.885L6.17407 130.176C5.95649 129.959 5.58385 130.093 5.55495 130.399L4.84567 137.918C4.8355 138.025 4.87395 138.132 4.95057 138.209L19.2546 152.513Z" fill="#401F1B"/>
</g>
<path d="M24.1787 259.895C24.1787 260.096 24.0159 260.259 23.8151 260.259H19.5423C19.3415 260.259 19.1787 260.096 19.1787 259.895V241.031C19.1787 240.724 19.5371 240.555 19.7742 240.751L24.0469 244.287C24.1304 244.356 24.1787 244.459 24.1787 244.568V259.895Z" fill="#622318"/>
<path d="M24.5423 260.259C24.3415 260.259 24.1787 260.421 24.1787 260.622L24.1787 264.895C24.1787 265.096 24.3415 265.259 24.5423 265.259L43.4058 265.259C43.7135 265.259 43.8821 264.9 43.6859 264.663L40.1498 260.39C40.0808 260.307 39.9781 260.259 39.8697 260.259L24.5423 260.259Z" fill="#622318"/>
<path d="M35.224 256.86C35.4531 257.089 35.2908 257.481 34.9669 257.481H27.3195C27.1186 257.481 26.9558 257.318 26.9558 257.117V249.47C26.9558 249.146 27.3475 248.983 27.5766 249.213L31.4003 253.036L35.224 256.86Z" fill="#622318"/>
</svg>
