<svg width="357" height="277" viewBox="0 0 357 277" fill="none" xmlns="http://www.w3.org/2000/svg">
<rect x="2.5453" y="5.5453" width="344.909" height="268.909" rx="9.81759" fill="#EE6533" stroke="#F6AB7C" stroke-width="5.0906"/>
<rect x="6.5453" y="2.5453" width="344.909" height="268.909" rx="9.81759" fill="#EE6533" stroke="#F6A966" stroke-width="5.0906"/>
<path d="M167.814 241.1C167.667 241.1 167.558 241.069 167.489 241.007C167.426 240.937 167.395 240.828 167.395 240.681V239.296C167.395 239.149 167.426 239.044 167.489 238.982C167.558 238.912 167.667 238.877 167.814 238.877H168.966V234.968H167.814C167.667 234.968 167.558 234.937 167.489 234.875C167.426 234.805 167.395 234.696 167.395 234.549V233.141C167.395 232.993 167.426 232.889 167.489 232.827C167.558 232.757 167.667 232.722 167.814 232.722H172.771C172.919 232.722 173.023 232.757 173.085 232.827C173.155 232.889 173.19 232.993 173.19 233.141V234.549C173.19 234.696 173.155 234.805 173.085 234.875C173.023 234.937 172.919 234.968 172.771 234.968H171.642V238.877H172.771C172.919 238.877 173.023 238.912 173.085 238.982C173.155 239.044 173.19 239.149 173.19 239.296V240.681C173.19 240.828 173.155 240.937 173.085 241.007C173.023 241.069 172.919 241.1 172.771 241.1H167.814ZM174.859 241.1C174.712 241.1 174.603 241.069 174.534 241.007C174.472 240.937 174.44 240.828 174.44 240.681V239.296C174.44 239.149 174.472 239.044 174.534 238.982C174.603 238.912 174.712 238.877 174.859 238.877H176.011V234.968H174.859C174.712 234.968 174.603 234.937 174.534 234.875C174.472 234.805 174.44 234.696 174.44 234.549V233.141C174.44 232.993 174.472 232.889 174.534 232.827C174.603 232.757 174.712 232.722 174.859 232.722H179.816C179.964 232.722 180.068 232.757 180.13 232.827C180.2 232.889 180.235 232.993 180.235 233.141V234.549C180.235 234.696 180.2 234.805 180.13 234.875C180.068 234.937 179.964 234.968 179.816 234.968H178.687V238.877H179.816C179.964 238.877 180.068 238.912 180.13 238.982C180.2 239.044 180.235 239.149 180.235 239.296V240.681C180.235 240.828 180.2 240.937 180.13 241.007C180.068 241.069 179.964 241.1 179.816 241.1H174.859Z" fill="#F6AB7C"/>
<path d="M333.817 19.9137C333.817 19.7128 333.98 19.55 334.181 19.55H338.454C338.655 19.55 338.817 19.7128 338.817 19.9137V38.7771C338.817 39.0848 338.459 39.2535 338.222 39.0573L333.949 35.5212C333.866 35.4521 333.817 35.3494 333.817 35.2411V19.9137Z" fill="#F6AB7C"/>
<path d="M333.454 19.55C333.655 19.55 333.817 19.3873 333.817 19.1864L333.817 14.9137C333.817 14.7128 333.655 14.55 333.454 14.55L314.59 14.55C314.283 14.55 314.114 14.9084 314.31 15.1455L317.846 19.4183C317.915 19.5017 318.018 19.55 318.126 19.55L333.454 19.55Z" fill="#F6AB7C"/>
<path d="M322.771 22.9486C322.542 22.7195 322.704 22.3279 323.028 22.3279H330.676C330.876 22.3279 331.039 22.4907 331.039 22.6915V30.3389C331.039 30.6629 330.648 30.8251 330.419 30.596L326.595 26.7723L322.771 22.9486Z" fill="#F6AB7C"/>
<path d="M24.2842 20.463C24.2842 20.2622 24.1214 20.0994 23.9206 20.0994H19.6478C19.447 20.0994 19.2842 20.2622 19.2842 20.463V39.3265C19.2842 39.6342 19.6426 39.8028 19.8796 39.6066L24.1524 36.0705C24.2359 36.0014 24.2842 35.8987 24.2842 35.7904V20.463Z" fill="#F6AB7C"/>
<path d="M24.6478 20.0994C24.447 20.0994 24.2842 19.9366 24.2842 19.7358L24.2842 15.463C24.2842 15.2622 24.447 15.0994 24.6478 15.0994L43.5113 15.0994C43.819 15.0994 43.9876 15.4578 43.7914 15.6948L40.2553 19.9676C40.1862 20.051 40.0835 20.0994 39.9752 20.0994L24.6478 20.0994Z" fill="#F6AB7C"/>
<path d="M35.3304 23.4979C35.5595 23.2689 35.3973 22.8772 35.0733 22.8772H27.4259C27.2251 22.8772 27.0623 23.04 27.0623 23.2408V30.8882C27.0623 31.2122 27.4539 31.3744 27.683 31.1454L31.5067 27.3216L35.3304 23.4979Z" fill="#F6AB7C"/>
<path d="M333.817 253.445C333.817 253.646 333.98 253.808 334.181 253.808H338.454C338.655 253.808 338.817 253.646 338.817 253.445V234.581C338.817 234.274 338.459 234.105 338.222 234.301L333.949 237.837C333.866 237.906 333.817 238.009 333.817 238.117V253.445Z" fill="#F6AB7C"/>
<path d="M333.454 253.808C333.655 253.808 333.817 253.971 333.817 254.172L333.817 258.445C333.817 258.646 333.655 258.808 333.454 258.808L314.59 258.808C314.283 258.808 314.114 258.45 314.31 258.213L317.846 253.94C317.915 253.857 318.018 253.808 318.126 253.808L333.454 253.808Z" fill="#F6AB7C"/>
<path d="M322.771 250.41C322.542 250.639 322.704 251.031 323.028 251.031H330.676C330.876 251.031 331.039 250.868 331.039 250.667V243.02C331.039 242.696 330.648 242.534 330.419 242.763L326.595 246.586L322.771 250.41Z" fill="#F6AB7C"/>
<g opacity="0.4">
<path d="M338.611 152.213C338.469 152.071 338.238 152.071 338.096 152.213L333.983 156.327C333.841 156.469 333.841 156.699 333.983 156.841L351.691 174.55C351.909 174.767 352.281 174.633 352.31 174.327L353.02 166.808C353.03 166.701 352.991 166.594 352.915 166.517L338.611 152.213Z" fill="#F6A966"/>
<path d="M333.727 156.087C333.727 156.288 333.889 156.451 334.09 156.451L339.908 156.451C340.109 156.451 340.272 156.288 340.272 156.087L340.272 118.271C340.272 118.07 340.109 117.908 339.908 117.908L334.09 117.908C333.889 117.908 333.727 118.07 333.727 118.271L333.727 156.087Z" fill="#F6A966"/>
<path d="M338.611 122.61C338.469 122.752 338.238 122.752 338.096 122.61L333.983 118.496C333.841 118.354 333.841 118.124 333.983 117.982L351.691 100.273C351.909 100.056 352.281 100.19 352.31 100.496L353.02 108.015C353.03 108.123 352.991 108.229 352.915 108.306L338.611 122.61Z" fill="#F6A966"/>
</g>
<g opacity="0.4">
<path d="M18.3581 152.763C18.5001 152.621 18.7303 152.621 18.8723 152.763L22.9862 156.877C23.1282 157.019 23.1282 157.249 22.9862 157.391L5.27759 175.1C5.06001 175.317 4.68737 175.183 4.65847 174.877L3.94919 167.358C3.93901 167.25 3.97747 167.144 4.05408 167.067L18.3581 152.763Z" fill="#F6A966"/>
<path d="M23.2441 156.637C23.2441 156.838 23.0813 157 22.8805 157L17.0627 157C16.8619 157 16.6991 156.838 16.6991 156.637L16.6991 118.821C16.6991 118.62 16.8619 118.457 17.0627 118.457L22.8805 118.457C23.0813 118.457 23.2441 118.62 23.2441 118.821L23.2441 156.637Z" fill="#F6A966"/>
<path d="M18.3581 123.16C18.5001 123.302 18.7303 123.302 18.8723 123.16L22.9862 119.046C23.1282 118.904 23.1282 118.674 22.9862 118.532L5.27759 100.823C5.06001 100.606 4.68737 100.74 4.65847 101.046L3.94919 108.565C3.93901 108.672 3.97747 108.779 4.05408 108.856L18.3581 123.16Z" fill="#F6A966"/>
</g>
<path d="M24.2842 253.995C24.2842 254.196 24.1214 254.359 23.9206 254.359H19.6478C19.447 254.359 19.2842 254.196 19.2842 253.995V235.132C19.2842 234.824 19.6426 234.655 19.8796 234.851L24.1524 238.388C24.2359 238.457 24.2842 238.559 24.2842 238.668V253.995Z" fill="#F6AB7C"/>
<path d="M24.6478 254.359C24.447 254.359 24.2842 254.521 24.2842 254.722L24.2842 258.995C24.2842 259.196 24.447 259.359 24.6478 259.359L43.5113 259.359C43.819 259.359 43.9876 259 43.7914 258.763L40.2553 254.49C40.1862 254.407 40.0835 254.359 39.9752 254.359L24.6478 254.359Z" fill="#F6AB7C"/>
<path d="M35.3304 250.96C35.5595 251.189 35.3973 251.581 35.0733 251.581H27.4259C27.2251 251.581 27.0623 251.418 27.0623 251.217V243.57C27.0623 243.246 27.4539 243.084 27.683 243.313L31.5067 247.136L35.3304 250.96Z" fill="#F6AB7C"/>
</svg>
