<svg width="117" height="139" viewBox="0 0 117 139" fill="none" xmlns="http://www.w3.org/2000/svg">
<rect x="11.2724" y="4.36317" width="89.8128" height="131.992" rx="9.81759" fill="#6BA865" stroke="#F1F571" stroke-width="5.0906"/>
<rect x="13.0902" y="2.5453" width="89.8128" height="131.992" rx="9.81759" fill="#6BA865" stroke="#61E855" stroke-width="5.0906"/>
<path d="M55.8732 120.084C55.7258 120.084 55.6172 120.053 55.5474 119.991C55.4853 119.921 55.4543 119.813 55.4543 119.665V118.281C55.4543 118.133 55.4853 118.029 55.5474 117.967C55.6172 117.897 55.7258 117.862 55.8732 117.862H57.0251V113.952H55.8732C55.7258 113.952 55.6172 113.921 55.5474 113.859C55.4853 113.789 55.4543 113.681 55.4543 113.533V112.125C55.4543 111.978 55.4853 111.873 55.5474 111.811C55.6172 111.741 55.7258 111.707 55.8732 111.707H60.83C60.9774 111.707 61.0821 111.741 61.1442 111.811C61.214 111.873 61.2489 111.978 61.2489 112.125V113.533C61.2489 113.681 61.214 113.789 61.1442 113.859C61.0821 113.921 60.9774 113.952 60.83 113.952H59.7013V117.862H60.83C60.9774 117.862 61.0821 117.897 61.1442 117.967C61.214 118.029 61.2489 118.133 61.2489 118.281V119.665C61.2489 119.813 61.214 119.921 61.1442 119.991C61.0821 120.053 60.9774 120.084 60.83 120.084H55.8732Z" fill="#F1F571"/>
<path d="M93.4497 12.3629C93.4497 12.1621 93.6125 11.9993 93.8133 11.9993H96.3586C96.5594 11.9993 96.7222 12.1621 96.7222 12.3629V24.3165C96.7222 24.6242 96.3639 24.7928 96.1268 24.5966L93.5815 22.4902C93.498 22.4211 93.4497 22.3184 93.4497 22.21V12.3629Z" fill="#F1F571"/>
<path d="M93.0861 11.9993C93.2869 11.9993 93.4497 11.8365 93.4497 11.6357L93.4497 9.09035C93.4497 8.88953 93.2869 8.72674 93.0861 8.72674L81.1325 8.72674C80.8248 8.72674 80.6562 9.08512 80.8524 9.32218L82.9588 11.8675C83.0279 11.951 83.1306 11.9993 83.2389 11.9993L93.0861 11.9993Z" fill="#F1F571"/>
<path d="M86.4342 14.4381C86.2051 14.209 86.3674 13.8174 86.6913 13.8174H91.2677C91.4685 13.8174 91.6313 13.9802 91.6313 14.181V18.7574C91.6313 19.0813 91.2396 19.2436 91.0106 19.0145L88.7224 16.7263L86.4342 14.4381Z" fill="#F1F571"/>
<path d="M22.5439 12.3629C22.5439 12.1621 22.3811 11.9993 22.1803 11.9993H19.635C19.4342 11.9993 19.2714 12.1621 19.2714 12.3629V24.3165C19.2714 24.6242 19.6298 24.7928 19.8669 24.5966L22.4122 22.4902C22.4956 22.4211 22.5439 22.3184 22.5439 22.21V12.3629Z" fill="#F1F571"/>
<path d="M22.9076 11.9993C22.7067 11.9993 22.5439 11.8365 22.5439 11.6357L22.5439 9.09035C22.5439 8.88953 22.7067 8.72674 22.9076 8.72674L34.8612 8.72674C35.1689 8.72674 35.3375 9.08512 35.1413 9.32218L33.0348 11.8675C32.9658 11.951 32.8631 11.9993 32.7547 11.9993L22.9076 11.9993Z" fill="#F1F571"/>
<path d="M29.559 14.4381C29.788 14.209 29.6258 13.8174 29.3018 13.8174H24.7255C24.5246 13.8174 24.3619 13.9802 24.3619 14.181V18.7574C24.3619 19.0813 24.7535 19.2436 24.9826 19.0145L27.2708 16.7263L29.559 14.4381Z" fill="#F1F571"/>
<path d="M93.4497 124.72C93.4497 124.921 93.6125 125.083 93.8133 125.083H96.3586C96.5594 125.083 96.7222 124.921 96.7222 124.72V112.766C96.7222 112.459 96.3639 112.29 96.1268 112.486L93.5815 114.593C93.498 114.662 93.4497 114.764 93.4497 114.873V124.72Z" fill="#F1F571"/>
<path d="M93.0861 125.083C93.2869 125.083 93.4497 125.246 93.4497 125.447L93.4497 127.992C93.4497 128.193 93.2869 128.356 93.0861 128.356L81.1325 128.356C80.8248 128.356 80.6562 127.998 80.8524 127.761L82.9588 125.215C83.0279 125.132 83.1306 125.083 83.2389 125.083L93.0861 125.083Z" fill="#F1F571"/>
<path d="M86.4342 122.645C86.2051 122.874 86.3674 123.265 86.6913 123.265H91.2677C91.4685 123.265 91.6313 123.103 91.6313 122.902V118.325C91.6313 118.001 91.2396 117.839 91.0106 118.068L88.7224 120.356L86.4342 122.645Z" fill="#F1F571"/>
<path d="M96.3836 76.1868C96.2416 76.0448 96.0114 76.0448 95.8694 76.1868L94.0696 77.9866C93.9276 78.1286 93.9276 78.3588 94.0696 78.5008L102.522 86.9533C102.74 87.1709 103.112 87.0367 103.141 86.7303L103.451 83.441C103.462 83.3332 103.423 83.2264 103.347 83.1498L96.3836 76.1868Z" fill="#61E855"/>
<path d="M93.8125 77.8134C93.8125 78.0142 93.9753 78.177 94.1761 78.177L96.7214 78.177C96.9222 78.177 97.085 78.0142 97.085 77.8134L97.085 59.269C97.085 59.0682 96.9222 58.9054 96.7214 58.9054L94.1761 58.9054C93.9753 58.9054 93.8125 59.0682 93.8125 59.269L93.8125 77.8134Z" fill="#61E855"/>
<path d="M96.3836 61.1281C96.2416 61.2701 96.0114 61.2701 95.8694 61.1281L94.0696 59.3283C93.9276 59.1863 93.9276 58.9561 94.0696 58.8141L102.522 50.3616C102.74 50.1441 103.112 50.2783 103.141 50.5846L103.451 53.8739C103.462 53.9818 103.423 54.0885 103.347 54.1652L96.3836 61.1281Z" fill="#61E855"/>
<path d="M19.5442 76.1868C19.6862 76.0448 19.9164 76.0448 20.0584 76.1868L21.8582 77.9866C22.0002 78.1286 22.0002 78.3588 21.8582 78.5008L13.4057 86.9533C13.1881 87.1709 12.8155 87.0367 12.7866 86.7303L12.4763 83.441C12.4661 83.3332 12.5046 83.2264 12.5812 83.1498L19.5442 76.1868Z" fill="#61E855"/>
<path d="M22.1147 77.8134C22.1147 78.0142 21.952 78.177 21.7511 78.177L19.2058 78.177C19.005 78.177 18.8422 78.0142 18.8422 77.8134L18.8422 59.269C18.8422 59.0682 19.005 58.9054 19.2058 58.9054L21.7511 58.9054C21.9519 58.9054 22.1147 59.0682 22.1147 59.269L22.1147 77.8134Z" fill="#61E855"/>
<path d="M19.5442 61.1281C19.6862 61.2701 19.9164 61.2701 20.0584 61.1281L21.8582 59.3283C22.0002 59.1863 22.0002 58.9561 21.8582 58.8141L13.4057 50.3616C13.1881 50.1441 12.8155 50.2783 12.7866 50.5846L12.4763 53.8739C12.4661 53.9818 12.5046 54.0885 12.5812 54.1652L19.5442 61.1281Z" fill="#61E855"/>
<path d="M22.5439 124.72C22.5439 124.921 22.3811 125.083 22.1803 125.083H19.635C19.4342 125.083 19.2714 124.921 19.2714 124.72V112.766C19.2714 112.459 19.6298 112.29 19.8669 112.486L22.4122 114.593C22.4956 114.662 22.5439 114.764 22.5439 114.873V124.72Z" fill="#F1F571"/>
<path d="M22.9076 125.083C22.7067 125.083 22.5439 125.246 22.5439 125.447L22.5439 127.992C22.5439 128.193 22.7067 128.356 22.9076 128.356L34.8612 128.356C35.1689 128.356 35.3375 127.998 35.1413 127.761L33.0348 125.215C32.9658 125.132 32.8631 125.083 32.7547 125.083L22.9076 125.083Z" fill="#F1F571"/>
<path d="M29.559 122.645C29.788 122.874 29.6258 123.265 29.3018 123.265H24.7255C24.5246 123.265 24.3619 123.103 24.3619 122.902V118.325C24.3619 118.001 24.7535 117.839 24.9826 118.068L27.2708 120.356L29.559 122.645Z" fill="#F1F571"/>
</svg>
