<svg width="117" height="140" viewBox="0 0 117 140" fill="none" xmlns="http://www.w3.org/2000/svg">
<rect x="11.2719" y="5.45424" width="89.8128" height="131.992" rx="9.81759" fill="#BF3F2E" stroke="#622318" stroke-width="5.0906"/>
<rect x="13.0902" y="3.63612" width="89.8128" height="131.992" rx="9.81759" fill="#BF3F2E" stroke="#401F1B" stroke-width="5.0906"/>
<path d="M58.168 133.072L51.9972 133.072L58.168 126.901L64.3387 133.072L58.168 133.072Z" fill="#401F1B"/>
<path d="M56.3496 6.17074L50.1789 6.17074L56.3496 12.3415L62.5204 6.17074L56.3496 6.17074Z" fill="#401F1B"/>
<path d="M48.8282 121.175C48.6808 121.175 48.5722 121.144 48.5024 121.082C48.4403 121.012 48.4093 120.904 48.4093 120.756V119.372C48.4093 119.224 48.4403 119.119 48.5024 119.057C48.5722 118.988 48.6808 118.953 48.8282 118.953H49.9801V115.043H48.8282C48.6808 115.043 48.5722 115.012 48.5024 114.95C48.4403 114.88 48.4093 114.772 48.4093 114.624V113.216C48.4093 113.069 48.4403 112.964 48.5024 112.902C48.5722 112.832 48.6808 112.797 48.8282 112.797H53.785C53.9323 112.797 54.0371 112.832 54.0991 112.902C54.1689 112.964 54.2038 113.069 54.2038 113.216V114.624C54.2038 114.772 54.1689 114.88 54.0991 114.95C54.0371 115.012 53.9323 115.043 53.785 115.043H52.6563V118.953H53.785C53.9323 118.953 54.0371 118.988 54.0991 119.057C54.1689 119.119 54.2038 119.224 54.2038 119.372V120.756C54.2038 120.904 54.1689 121.012 54.0991 121.082C54.0371 121.144 53.9323 121.175 53.785 121.175H48.8282ZM55.8732 121.175C55.7258 121.175 55.6172 121.144 55.5474 121.082C55.4853 121.012 55.4543 120.904 55.4543 120.756V119.372C55.4543 119.224 55.4853 119.119 55.5474 119.057C55.6172 118.988 55.7258 118.953 55.8732 118.953H57.0251V115.043H55.8732C55.7258 115.043 55.6172 115.012 55.5474 114.95C55.4853 114.88 55.4543 114.772 55.4543 114.624V113.216C55.4543 113.069 55.4853 112.964 55.5474 112.902C55.6172 112.832 55.7258 112.797 55.8732 112.797H60.83C60.9774 112.797 61.0821 112.832 61.1442 112.902C61.214 112.964 61.2489 113.069 61.2489 113.216V114.624C61.2489 114.772 61.214 114.88 61.1442 114.95C61.0821 115.012 60.9774 115.043 60.83 115.043H59.7013V118.953H60.83C60.9774 118.953 61.0821 118.988 61.1442 119.057C61.214 119.119 61.2489 119.224 61.2489 119.372V120.756C61.2489 120.904 61.214 121.012 61.1442 121.082C61.0821 121.144 60.9774 121.175 60.83 121.175H55.8732ZM62.9182 121.175C62.7708 121.175 62.6622 121.144 62.5924 121.082C62.5304 121.012 62.4993 120.904 62.4993 120.756V119.372C62.4993 119.224 62.5304 119.119 62.5924 119.057C62.6622 118.988 62.7708 118.953 62.9182 118.953H64.0702V115.043H62.9182C62.7708 115.043 62.6622 115.012 62.5924 114.95C62.5304 114.88 62.4993 114.772 62.4993 114.624V113.216C62.4993 113.069 62.5304 112.964 62.5924 112.902C62.6622 112.832 62.7708 112.797 62.9182 112.797H67.875C68.0224 112.797 68.1271 112.832 68.1892 112.902C68.259 112.964 68.2939 113.069 68.2939 113.216V114.624C68.2939 114.772 68.259 114.88 68.1892 114.95C68.1271 115.012 68.0224 115.043 67.875 115.043H66.7464V118.953H67.875C68.0224 118.953 68.1271 118.988 68.1892 119.057C68.259 119.119 68.2939 119.224 68.2939 119.372V120.756C68.2939 120.904 68.259 121.012 68.1892 121.082C68.1271 121.144 68.0224 121.175 67.875 121.175H62.9182Z" fill="#622318"/>
<path d="M93.4482 13.4539C93.4482 13.2531 93.611 13.0903 93.8119 13.0903H96.3572C96.558 13.0903 96.7208 13.2531 96.7208 13.4539V25.4075C96.7208 25.7153 96.3624 25.8839 96.1253 25.6877L93.58 23.5812C93.4966 23.5121 93.4482 23.4094 93.4482 23.3011V13.4539Z" fill="#622318"/>
<path d="M93.0846 13.0903C93.2854 13.0903 93.4482 12.9275 93.4482 12.7267L93.4482 10.1814C93.4482 9.9806 93.2854 9.8178 93.0846 9.8178L81.131 9.8178C80.8233 9.8178 80.6547 10.1762 80.8509 10.4132L82.9574 12.9585C83.0264 13.042 83.1291 13.0903 83.2375 13.0903L93.0846 13.0903Z" fill="#622318"/>
<path d="M86.4342 15.5292C86.2051 15.3001 86.3674 14.9084 86.6913 14.9084H91.2677C91.4685 14.9084 91.6313 15.0712 91.6313 15.2721V19.8484C91.6313 20.1724 91.2396 20.3346 91.0106 20.1056L88.7224 17.8174L86.4342 15.5292Z" fill="#622318"/>
<path d="M22.5439 13.4537C22.5439 13.2529 22.3811 13.0901 22.1803 13.0901H19.635C19.4342 13.0901 19.2714 13.2529 19.2714 13.4537V25.4073C19.2714 25.715 19.6298 25.8836 19.8669 25.6874L22.4122 23.581C22.4956 23.5119 22.5439 23.4092 22.5439 23.3008V13.4537Z" fill="#622318"/>
<path d="M22.9076 13.0901C22.7067 13.0901 22.5439 12.9273 22.5439 12.7265L22.5439 10.1812C22.5439 9.98035 22.7067 9.81756 22.9076 9.81756L34.8612 9.81756C35.1689 9.81756 35.3375 10.1759 35.1413 10.413L33.0348 12.9583C32.9658 13.0418 32.8631 13.0901 32.7547 13.0901L22.9076 13.0901Z" fill="#622318"/>
<path d="M29.559 15.5289C29.788 15.2999 29.6258 14.9082 29.3018 14.9082H24.7255C24.5246 14.9082 24.3619 15.071 24.3619 15.2718V19.8482C24.3619 20.1721 24.7535 20.3344 24.9826 20.1053L27.2708 17.8171L29.559 15.5289Z" fill="#622318"/>
<path d="M93.4482 125.81C93.4482 126.011 93.611 126.174 93.8119 126.174H96.3572C96.558 126.174 96.7208 126.011 96.7208 125.81V113.857C96.7208 113.549 96.3624 113.381 96.1253 113.577L93.58 115.683C93.4966 115.752 93.4482 115.855 93.4482 115.963V125.81Z" fill="#622318"/>
<path d="M93.0846 126.174C93.2854 126.174 93.4482 126.337 93.4482 126.538L93.4482 129.083C93.4482 129.284 93.2854 129.447 93.0846 129.447L81.131 129.447C80.8233 129.447 80.6547 129.088 80.8509 128.851L82.9574 126.306C83.0264 126.222 83.1291 126.174 83.2375 126.174L93.0846 126.174Z" fill="#622318"/>
<path d="M86.4342 123.735C86.2051 123.964 86.3674 124.356 86.6913 124.356H91.2677C91.4685 124.356 91.6313 124.193 91.6313 123.992V119.416C91.6313 119.092 91.2396 118.93 91.0106 119.159L88.7224 121.447L86.4342 123.735Z" fill="#622318"/>
<path d="M96.3831 64.5513C96.2411 64.4093 96.0109 64.4093 95.8689 64.5513L94.0691 66.3511C93.9271 66.4931 93.9271 66.7233 94.0691 66.8653L102.522 75.3178C102.739 75.5354 103.112 75.4012 103.141 75.0948L103.451 71.8056C103.461 71.6977 103.423 71.5909 103.346 71.5143L96.3831 64.5513Z" fill="#401F1B"/>
<path d="M93.8115 66.1779C93.8115 66.3787 93.9743 66.5415 94.1751 66.5415L96.7204 66.5415C96.9213 66.5415 97.0841 66.3787 97.0841 66.1779L97.0841 47.6335C97.0841 47.4327 96.9213 47.2699 96.7204 47.2699L94.1751 47.2699C93.9743 47.2699 93.8115 47.4327 93.8115 47.6335L93.8115 66.1779Z" fill="#401F1B"/>
<path d="M96.3831 49.4924C96.2411 49.6344 96.0109 49.6344 95.8689 49.4924L94.0691 47.6926C93.9271 47.5506 93.9271 47.3204 94.0691 47.1784L102.522 38.7259C102.739 38.5083 103.112 38.6425 103.141 38.9489L103.451 42.2381C103.461 42.346 103.423 42.4528 103.346 42.5294L96.3831 49.4924Z" fill="#401F1B"/>
<path d="M19.5427 64.5513C19.6847 64.4093 19.9149 64.4093 20.0569 64.5513L21.8567 66.3511C21.9987 66.4931 21.9987 66.7233 21.8567 66.8653L13.4042 75.3178C13.1867 75.5354 12.814 75.4012 12.7851 75.0948L12.4748 71.8056C12.4646 71.6977 12.5031 71.5909 12.5797 71.5143L19.5427 64.5513Z" fill="#401F1B"/>
<path d="M22.1143 66.1779C22.1143 66.3787 21.9515 66.5415 21.7506 66.5415L19.2053 66.5415C19.0045 66.5415 18.8417 66.3787 18.8417 66.1779L18.8417 47.6335C18.8417 47.4327 19.0045 47.2699 19.2053 47.2699L21.7506 47.2699C21.9515 47.2699 22.1143 47.4327 22.1143 47.6335L22.1143 66.1779Z" fill="#401F1B"/>
<path d="M19.5427 49.4924C19.6847 49.6344 19.9149 49.6344 20.0569 49.4924L21.8567 47.6926C21.9987 47.5506 21.9987 47.3204 21.8567 47.1784L13.4042 38.7259C13.1867 38.5083 12.814 38.6425 12.7851 38.9489L12.4748 42.2381C12.4646 42.346 12.5031 42.4528 12.5797 42.5294L19.5427 49.4924Z" fill="#401F1B"/>
<path d="M96.3831 90.0044C96.2411 89.8624 96.0109 89.8624 95.8689 90.0044L94.0691 91.8042C93.9271 91.9462 93.9271 92.1765 94.0691 92.3185L102.522 100.771C102.739 100.989 103.112 100.854 103.141 100.548L103.451 97.2587C103.461 97.1508 103.423 97.044 103.346 96.9674L96.3831 90.0044Z" fill="#401F1B"/>
<path d="M93.8115 91.631C93.8115 91.8318 93.9743 91.9946 94.1751 91.9946L96.7204 91.9946C96.9213 91.9946 97.0841 91.8318 97.0841 91.631L97.0841 73.0867C97.0841 72.8859 96.9213 72.7231 96.7204 72.7231L94.1751 72.7231C93.9743 72.7231 93.8115 72.8859 93.8115 73.0867L93.8115 91.631Z" fill="#401F1B"/>
<path d="M96.3831 74.9455C96.2411 75.0875 96.0109 75.0875 95.8689 74.9455L94.0691 73.1457C93.9271 73.0037 93.9271 72.7735 94.0691 72.6315L102.522 64.179C102.739 63.9614 103.112 64.0956 103.141 64.402L103.451 67.6913C103.461 67.7991 103.423 67.9059 103.346 67.9825L96.3831 74.9455Z" fill="#401F1B"/>
<path d="M19.5427 90.0044C19.6847 89.8624 19.9149 89.8624 20.0569 90.0044L21.8567 91.8042C21.9987 91.9462 21.9987 92.1765 21.8567 92.3185L13.4042 100.771C13.1867 100.989 12.814 100.854 12.7851 100.548L12.4748 97.2587C12.4646 97.1508 12.5031 97.044 12.5797 96.9674L19.5427 90.0044Z" fill="#401F1B"/>
<path d="M22.1143 91.6308C22.1143 91.8316 21.9515 91.9944 21.7506 91.9944L19.2053 91.9944C19.0045 91.9944 18.8417 91.8316 18.8417 91.6308L18.8417 73.0864C18.8417 72.8856 19.0045 72.7228 19.2053 72.7228L21.7506 72.7228C21.9515 72.7228 22.1143 72.8856 22.1143 73.0864L22.1143 91.6308Z" fill="#401F1B"/>
<path d="M19.5427 74.9455C19.6847 75.0875 19.9149 75.0875 20.0569 74.9455L21.8567 73.1457C21.9987 73.0037 21.9987 72.7735 21.8567 72.6315L13.4042 64.179C13.1867 63.9614 12.814 64.0956 12.7851 64.402L12.4748 67.6913C12.4646 67.7991 12.5031 67.9059 12.5797 67.9825L19.5427 74.9455Z" fill="#401F1B"/>
<path d="M22.5439 125.81C22.5439 126.011 22.3811 126.174 22.1803 126.174H19.635C19.4342 126.174 19.2714 126.011 19.2714 125.81V113.857C19.2714 113.549 19.6298 113.381 19.8669 113.577L22.4122 115.683C22.4956 115.752 22.5439 115.855 22.5439 115.963V125.81Z" fill="#622318"/>
<path d="M22.9076 126.174C22.7067 126.174 22.5439 126.337 22.5439 126.538L22.5439 129.083C22.5439 129.284 22.7067 129.447 22.9076 129.447L34.8612 129.447C35.1689 129.447 35.3375 129.088 35.1413 128.851L33.0348 126.306C32.9658 126.222 32.8631 126.174 32.7547 126.174L22.9076 126.174Z" fill="#622318"/>
<path d="M29.559 123.735C29.788 123.964 29.6258 124.356 29.3018 124.356H24.7255C24.5246 124.356 24.3619 124.193 24.3619 123.992V119.416C24.3619 119.092 24.7535 118.93 24.9826 119.159L27.2708 121.447L29.559 123.735Z" fill="#622318"/>
</svg>
