<svg width="117" height="139" viewBox="0 0 117 139" fill="none" xmlns="http://www.w3.org/2000/svg">
<rect x="11.2724" y="4.36317" width="89.8128" height="131.992" rx="9.81759" fill="#EE6533" stroke="#F6AB7C" stroke-width="5.0906"/>
<rect x="13.0902" y="2.5453" width="89.8128" height="131.992" rx="9.81759" fill="#EE6533" stroke="#F6A966" stroke-width="5.0906"/>
<path d="M52.3507 120.084C52.2033 120.084 52.0947 120.053 52.0249 119.991C51.9628 119.921 51.9318 119.813 51.9318 119.665V118.281C51.9318 118.133 51.9628 118.029 52.0249 117.967C52.0947 117.897 52.2033 117.862 52.3507 117.862H53.5026V113.952H52.3507C52.2033 113.952 52.0947 113.921 52.0249 113.859C51.9628 113.789 51.9318 113.681 51.9318 113.533V112.125C51.9318 111.978 51.9628 111.873 52.0249 111.811C52.0947 111.741 52.2033 111.707 52.3507 111.707H57.3075C57.4549 111.707 57.5596 111.741 57.6216 111.811C57.6914 111.873 57.7264 111.978 57.7264 112.125V113.533C57.7264 113.681 57.6914 113.789 57.6216 113.859C57.5596 113.921 57.4549 113.952 57.3075 113.952H56.1788V117.862H57.3075C57.4549 117.862 57.5596 117.897 57.6216 117.967C57.6914 118.029 57.7264 118.133 57.7264 118.281V119.665C57.7264 119.813 57.6914 119.921 57.6216 119.991C57.5596 120.053 57.4549 120.084 57.3075 120.084H52.3507ZM59.3957 120.084C59.2483 120.084 59.1397 120.053 59.0699 119.991C59.0079 119.921 58.9768 119.813 58.9768 119.665V118.281C58.9768 118.133 59.0079 118.029 59.0699 117.967C59.1397 117.897 59.2483 117.862 59.3957 117.862H60.5476V113.952H59.3957C59.2483 113.952 59.1397 113.921 59.0699 113.859C59.0079 113.789 58.9768 113.681 58.9768 113.533V112.125C58.9768 111.978 59.0079 111.873 59.0699 111.811C59.1397 111.741 59.2483 111.707 59.3957 111.707H64.3525C64.4999 111.707 64.6046 111.741 64.6667 111.811C64.7365 111.873 64.7714 111.978 64.7714 112.125V113.533C64.7714 113.681 64.7365 113.789 64.6667 113.859C64.6046 113.921 64.4999 113.952 64.3525 113.952H63.2238V117.862H64.3525C64.4999 117.862 64.6046 117.897 64.6667 117.967C64.7365 118.029 64.7714 118.133 64.7714 118.281V119.665C64.7714 119.813 64.7365 119.921 64.6667 119.991C64.6046 120.053 64.4999 120.084 64.3525 120.084H59.3957Z" fill="#F6AB7C"/>
<path d="M93.4487 12.3629C93.4487 12.1621 93.6115 11.9993 93.8123 11.9993H96.3576C96.5585 11.9993 96.7213 12.1621 96.7213 12.3629V24.3165C96.7213 24.6242 96.3629 24.7928 96.1258 24.5966L93.5805 22.4902C93.497 22.4211 93.4487 22.3184 93.4487 22.21V12.3629Z" fill="#F6AB7C"/>
<path d="M93.0851 11.9993C93.2859 11.9993 93.4487 11.8365 93.4487 11.6357L93.4487 9.09035C93.4487 8.88953 93.2859 8.72674 93.0851 8.72674L81.1315 8.72674C80.8238 8.72674 80.6552 9.08512 80.8514 9.32218L82.9578 11.8675C83.0269 11.951 83.1296 11.9993 83.238 11.9993L93.0851 11.9993Z" fill="#F6AB7C"/>
<path d="M86.4342 14.4381C86.2051 14.209 86.3674 13.8174 86.6913 13.8174H91.2677C91.4685 13.8174 91.6313 13.9802 91.6313 14.181V18.7574C91.6313 19.0813 91.2396 19.2436 91.0106 19.0145L88.7224 16.7263L86.4342 14.4381Z" fill="#F6AB7C"/>
<path d="M22.5444 12.3629C22.5444 12.1621 22.3816 11.9993 22.1808 11.9993H19.6355C19.4347 11.9993 19.2719 12.1621 19.2719 12.3629V24.3165C19.2719 24.6242 19.6303 24.7928 19.8673 24.5966L22.4126 22.4902C22.4961 22.4211 22.5444 22.3184 22.5444 22.21V12.3629Z" fill="#F6AB7C"/>
<path d="M22.908 11.9993C22.7072 11.9993 22.5444 11.8365 22.5444 11.6357L22.5444 9.09035C22.5444 8.88953 22.7072 8.72674 22.908 8.72674L34.8616 8.72674C35.1694 8.72674 35.338 9.08512 35.1418 9.32218L33.0353 11.8675C32.9662 11.951 32.8635 11.9993 32.7552 11.9993L22.908 11.9993Z" fill="#F6AB7C"/>
<path d="M29.5594 14.4381C29.7885 14.209 29.6263 13.8174 29.3023 13.8174H24.726C24.5251 13.8174 24.3623 13.9802 24.3623 14.181V18.7574C24.3623 19.0813 24.754 19.2436 24.9831 19.0145L27.2713 16.7263L29.5594 14.4381Z" fill="#F6AB7C"/>
<path d="M93.4487 124.72C93.4487 124.921 93.6115 125.083 93.8123 125.083H96.3576C96.5585 125.083 96.7213 124.921 96.7213 124.72V112.766C96.7213 112.459 96.3629 112.29 96.1258 112.486L93.5805 114.593C93.497 114.662 93.4487 114.764 93.4487 114.873V124.72Z" fill="#F6AB7C"/>
<path d="M93.0851 125.083C93.2859 125.083 93.4487 125.246 93.4487 125.447L93.4487 127.992C93.4487 128.193 93.2859 128.356 93.0851 128.356L81.1315 128.356C80.8238 128.356 80.6552 127.998 80.8514 127.761L82.9578 125.215C83.0269 125.132 83.1296 125.083 83.238 125.083L93.0851 125.083Z" fill="#F6AB7C"/>
<path d="M86.4342 122.645C86.2051 122.874 86.3674 123.266 86.6913 123.266H91.2677C91.4685 123.266 91.6313 123.103 91.6313 122.902V118.326C91.6313 118.002 91.2396 117.839 91.0106 118.069L88.7224 120.357L86.4342 122.645Z" fill="#F6AB7C"/>
<path d="M96.3836 76.1868C96.2416 76.0448 96.0114 76.0448 95.8694 76.1868L94.0696 77.9866C93.9276 78.1286 93.9276 78.3588 94.0696 78.5008L102.522 86.9533C102.74 87.1709 103.112 87.0367 103.141 86.7303L103.451 83.441C103.462 83.3332 103.423 83.2264 103.347 83.1498L96.3836 76.1868Z" fill="#F6A966"/>
<path d="M93.8125 77.8134C93.8125 78.0142 93.9753 78.177 94.1761 78.177L96.7214 78.177C96.9222 78.177 97.085 78.0142 97.085 77.8134L97.085 59.269C97.085 59.0682 96.9222 58.9054 96.7214 58.9054L94.1761 58.9054C93.9753 58.9054 93.8125 59.0682 93.8125 59.269L93.8125 77.8134Z" fill="#F6A966"/>
<path d="M96.3836 61.1281C96.2416 61.2701 96.0114 61.2701 95.8694 61.1281L94.0696 59.3283C93.9276 59.1863 93.9276 58.9561 94.0696 58.8141L102.522 50.3616C102.74 50.1441 103.112 50.2783 103.141 50.5846L103.451 53.8739C103.462 53.9818 103.423 54.0885 103.347 54.1652L96.3836 61.1281Z" fill="#F6A966"/>
<path d="M19.5442 76.1868C19.6862 76.0448 19.9164 76.0448 20.0584 76.1868L21.8582 77.9866C22.0002 78.1286 22.0002 78.3588 21.8582 78.5008L13.4057 86.9533C13.1881 87.1709 12.8155 87.0367 12.7866 86.7303L12.4763 83.441C12.4661 83.3332 12.5046 83.2264 12.5812 83.1498L19.5442 76.1868Z" fill="#F6A966"/>
<path d="M22.1157 77.8134C22.1157 78.0142 21.9529 78.177 21.7521 78.177L19.2068 78.177C19.006 78.177 18.8432 78.0142 18.8432 77.8134L18.8432 59.269C18.8432 59.0682 19.006 58.9054 19.2068 58.9054L21.7521 58.9054C21.9529 58.9054 22.1157 59.0682 22.1157 59.269L22.1157 77.8134Z" fill="#F6A966"/>
<path d="M19.5442 61.1281C19.6862 61.2701 19.9164 61.2701 20.0584 61.1281L21.8582 59.3283C22.0002 59.1863 22.0002 58.9561 21.8582 58.8141L13.4057 50.3616C13.1881 50.1441 12.8155 50.2783 12.7866 50.5846L12.4763 53.8739C12.4661 53.9818 12.5046 54.0885 12.5812 54.1652L19.5442 61.1281Z" fill="#F6A966"/>
<path d="M22.5444 124.72C22.5444 124.921 22.3816 125.083 22.1808 125.083H19.6355C19.4347 125.083 19.2719 124.921 19.2719 124.72V112.766C19.2719 112.459 19.6303 112.29 19.8673 112.486L22.4126 114.593C22.4961 114.662 22.5444 114.764 22.5444 114.873V124.72Z" fill="#F6AB7C"/>
<path d="M22.908 125.083C22.7072 125.083 22.5444 125.246 22.5444 125.447L22.5444 127.992C22.5444 128.193 22.7072 128.356 22.908 128.356L34.8616 128.356C35.1694 128.356 35.338 127.998 35.1418 127.761L33.0353 125.215C32.9662 125.132 32.8635 125.083 32.7552 125.083L22.908 125.083Z" fill="#F6AB7C"/>
<path d="M29.5594 122.645C29.7885 122.874 29.6263 123.265 29.3023 123.265H24.726C24.5251 123.265 24.3623 123.103 24.3623 122.902V118.325C24.3623 118.001 24.754 117.839 24.9831 118.068L27.2713 120.356L29.5594 122.645Z" fill="#F6AB7C"/>
</svg>
